<svg width="24" height="24" viewBox="0 0 24 24" fill="none" xmlns="http://www.w3.org/2000/svg">
<path d="M13 4H14.5M13 4H11.5M13 4V5.5M13 4V2.5" stroke="white" stroke-linecap="round" stroke-linejoin="round" stroke-dasharray="4 4"/>
<path d="M19 11H20.5M19 11H17.5M19 11V12.5M19 11V9.5" stroke="white" stroke-linecap="round" stroke-linejoin="round" stroke-dasharray="4 4"/>
<path d="M19 4H20.5M19 4H17.5M19 4V5.5M19 4V2.5" stroke="white" stroke-linecap="round" stroke-linejoin="round" stroke-dasharray="4 4"/>
<path d="M7 5.99994C7 12.0799 11.92 16.9999 18 16.9999C18.53 16.9999 19.05 16.9599 19.56 16.8899C17.95 19.3599 15.17 20.9999 12 20.9999C7.03 20.9999 3 16.9699 3 11.9999C3 8.82994 4.64 6.04994 7.11 4.43994C7.04 4.94994 7 5.46994 7 5.99994Z" stroke="white" stroke-width="2" stroke-linecap="round" stroke-linejoin="round"/>
</svg>
