<svg width="217" height="219" viewBox="0 0 217 219" fill="none" xmlns="http://www.w3.org/2000/svg">
<path d="M121.006 119.691C123.808 115.478 120.275 110.212 115.215 110.212C111.834 110.212 108.757 107.682 109.78 104.46C113.928 91.3912 138.795 82.1521 142.892 106.212C146.895 129.713 120.395 156.753 93.3923 142.712C68.3923 129.713 62.8945 99.2129 86.8923 74.2124C100.087 60.4668 121.895 47.7129 153.392 63.2124C179.122 79.8373 187.395 106.212 176.392 134.712C172.543 148.776 165.574 158.263 152.439 167.245C135.88 178.568 115.503 185.527 95.7527 182.014C87.3725 180.524 79.8234 177.393 71.8871 172.306C59.8708 164.602 49.9198 153.792 43.4737 141.057C32.3668 119.115 31.6244 97.1189 44.1927 69.7298C49.0652 59.1115 56.0507 49.5773 64.2945 41.2991C93.1881 12.2848 120.833 2.15282 153.392 13.2124C130.797 1.90426 114.662 -1.99486 92.8475 0.939318C76.3714 3.15549 60.7611 9.92469 47.1899 19.5265C22.5722 36.9437 10.8005 54.6963 2.39234 86.2124C-3.30819 124.444 0.849699 145.722 18.4232 171.153C25.5819 181.512 34.5768 190.537 44.837 197.837C64.4639 211.802 81.4331 217.907 105.935 218.636C119.201 219.03 132.485 216.837 144.967 212.326C174.11 201.795 188.513 187.646 204.892 159.212C214.566 137.574 218.101 122.116 216.669 104.708C214.975 84.1114 205.793 64.2471 190.79 50.0342C184.14 43.7351 177.344 39.327 169.28 35.6657C158.996 30.997 147.79 28.5489 136.505 28.0867C116.718 27.2763 102.092 31.4107 86.601 43.406C71.5552 55.0566 60.4866 71.5507 55.5127 89.9184C52.24 102.004 51.4115 113.811 54.5884 125.28C58.9144 140.898 71.8688 152.717 86.4215 159.847C96.2319 164.653 104.988 166.356 113.917 165.09C134.892 162.114 151.564 144.65 159.598 125.047C164.48 113.136 165.121 101.622 157.911 91.4996C146.397 75.3334 121.592 69.3456 105.326 80.7177C91.7156 90.2329 87.2497 107.692 94.0884 119.782C95.6562 122.554 98.3821 124.455 101.392 125.495C110.427 128.617 115.961 127.274 121.006 119.691Z" fill="black"/>
<path d="M121.006 119.691C123.808 115.478 120.275 110.212 115.215 110.212C111.834 110.212 108.757 107.682 109.78 104.46C113.928 91.3912 138.795 82.1521 142.892 106.212C146.895 129.713 120.395 156.753 93.3923 142.712C68.3923 129.713 62.8945 99.2129 86.8923 74.2124C100.087 60.4668 121.895 47.7129 153.392 63.2124C179.122 79.8373 187.395 106.212 176.392 134.712C172.543 148.776 165.574 158.263 152.439 167.245C135.88 178.568 115.503 185.527 95.7527 182.014C87.3725 180.524 79.8234 177.393 71.8871 172.306C59.8708 164.602 49.9198 153.792 43.4737 141.057C32.3668 119.115 31.6244 97.1189 44.1927 69.7298C49.0652 59.1115 56.0507 49.5773 64.2945 41.2991C93.1881 12.2848 120.833 2.15282 153.392 13.2124C130.797 1.90426 114.662 -1.99486 92.8475 0.939318C76.3714 3.15549 60.7611 9.92469 47.1899 19.5265C22.5722 36.9437 10.8005 54.6963 2.39234 86.2124C-3.30819 124.444 0.849699 145.722 18.4232 171.153C25.5819 181.512 34.5768 190.537 44.837 197.837C64.4639 211.802 81.4331 217.907 105.935 218.636C119.201 219.03 132.485 216.837 144.967 212.326C174.11 201.795 188.513 187.646 204.892 159.212C214.566 137.574 218.101 122.116 216.669 104.708C214.975 84.1114 205.793 64.2471 190.79 50.0342C184.14 43.7351 177.344 39.327 169.28 35.6657C158.996 30.997 147.79 28.5489 136.505 28.0867C116.718 27.2763 102.092 31.4107 86.601 43.406C71.5552 55.0566 60.4866 71.5507 55.5127 89.9184C52.24 102.004 51.4115 113.811 54.5884 125.28C58.9144 140.898 71.8688 152.717 86.4215 159.847C96.2319 164.653 104.988 166.356 113.917 165.09C134.892 162.114 151.564 144.65 159.598 125.047C164.48 113.136 165.121 101.622 157.911 91.4996C146.397 75.3334 121.592 69.3456 105.326 80.7177C91.7156 90.2329 87.2497 107.692 94.0884 119.782C95.6562 122.554 98.3821 124.455 101.392 125.495C110.427 128.617 115.961 127.274 121.006 119.691Z" fill="url(#paint0_linear_2230_6982)"/>
<defs>
<linearGradient id="paint0_linear_2230_6982" x1="0" y1="109.355" x2="216.975" y2="109.355" gradientUnits="userSpaceOnUse">
<stop stop-color="#670A39"/>
<stop offset="0.131845" stop-color="#66E8B7"/>
<stop offset="0.199125" stop-color="#A0871B"/>
<stop offset="0.333685" stop-color="#861477"/>
<stop offset="0.490671" stop-color="#274CC3"/>
<stop offset="0.711734" stop-color="#E82828"/>
<stop offset="0.804644" stop-color="#F9251A"/>
<stop offset="0.881536" stop-color="#65D61F"/>
<stop offset="0.984057" stop-color="#D2B533"/>
</linearGradient>
</defs>
</svg>
